<?xml version="1.0" standalone="no"?>
<!DOCTYPE svg PUBLIC "-//W3C//DTD SVG 20010904//EN"
 "http://www.w3.org/TR/2001/REC-SVG-20010904/DTD/svg10.dtd">
<svg version="1.0" xmlns="http://www.w3.org/2000/svg"
 width="600.000000pt" height="600.000000pt" viewBox="0 0 600.000000 600.000000"
 preserveAspectRatio="xMidYMid meet">
<metadata>
Created by potrace 1.16, written by Peter Selinger 2001-2019
</metadata>
<g transform="translate(0.000000,600.000000) scale(0.100000,-0.100000)"
fill="#000000" stroke="none">
<path d="M3510 5030 c-400 -73 -682 -283 -829 -617 -41 -94 -80 -213 -104
-320 l-14 -62 51 -10 c28 -6 175 -31 326 -56 151 -26 285 -49 298 -52 19 -4
22 -1 22 25 0 50 49 204 83 260 104 173 277 256 478 231 221 -28 359 -194 359
-432 -1 -229 -138 -407 -365 -473 -33 -9 -105 -20 -160 -23 l-100 -6 -41 -300
c-23 -165 -40 -302 -38 -303 1 -2 44 6 95 18 117 27 275 37 351 21 176 -37
322 -176 385 -366 25 -73 27 -93 27 -240 0 -142 -3 -169 -25 -242 -32 -102
-78 -179 -152 -254 -106 -107 -217 -152 -371 -151 -270 2 -476 185 -535 478
-17 84 -20 89 -42 86 -13 -1 -173 -20 -356 -42 -183 -22 -335 -40 -338 -40
-10 0 -5 -44 15 -135 47 -219 123 -377 262 -543 176 -209 436 -355 728 -408
130 -24 411 -24 536 -1 285 52 514 175 715 384 186 193 287 396 325 653 76
518 -173 945 -635 1090 l-84 26 78 49 c252 157 411 363 460 596 19 90 19 268
0 359 -39 188 -121 327 -284 490 -167 165 -317 247 -550 302 -130 30 -429 34
-571 8z"/>
<path d="M1017 3953 c-4 -3 -7 -172 -7 -375 l0 -368 380 0 380 0 -2 373 -3
372 -371 3 c-204 1 -373 -1 -377 -5z"/>
<path d="M1010 1495 l0 -375 380 0 380 0 0 375 0 375 -380 0 -380 0 0 -375z"/>
</g>
</svg>
